<svg xmlns="http://www.w3.org/2000/svg" xmlns:xlink="http://www.w3.org/1999/xlink" width="500" zoomAndPan="magnify" viewBox="0 0 375 374.999991" height="500" preserveAspectRatio="xMidYMid meet" version="1.0"><defs><g/></defs><g fill="#1f2122" fill-opacity="1"><g transform="translate(45.070721, 193.774725)"><g><path d="M 56.765625 0 L 43.78125 0 L 35.71875 -25.984375 L 27.65625 0 L 14.59375 0 L -0.375 -40.96875 L 13 -40.96875 L 21.4375 -12.609375 L 29.640625 -40.96875 L 42.1875 -40.96875 L 50.609375 -12.609375 L 58.90625 -40.96875 L 71.75 -40.96875 Z M 56.765625 0 "/></g></g></g><g fill="#1f2122" fill-opacity="1"><g transform="translate(116.279059, 193.774725)"><g><path d="M 24.25 -41.421875 C 30.9375 -41.421875 36.332031 -39.503906 40.4375 -35.671875 C 44.539062 -31.847656 46.59375 -26.796875 46.59375 -20.515625 C 46.59375 -14.234375 44.539062 -9.164062 40.4375 -5.3125 C 36.332031 -1.46875 30.9375 0.453125 24.25 0.453125 C 17.507812 0.453125 12.085938 -1.46875 7.984375 -5.3125 C 3.878906 -9.164062 1.828125 -14.234375 1.828125 -20.515625 C 1.828125 -26.796875 3.878906 -31.847656 7.984375 -35.671875 C 12.085938 -39.503906 17.507812 -41.421875 24.25 -41.421875 Z M 24.25 -31.015625 C 21.507812 -31.015625 19.289062 -30.023438 17.59375 -28.046875 C 15.894531 -26.066406 15.046875 -23.507812 15.046875 -20.375 C 15.046875 -17.175781 15.894531 -14.601562 17.59375 -12.65625 C 19.289062 -10.707031 21.507812 -9.734375 24.25 -9.734375 C 26.925781 -9.734375 29.113281 -10.707031 30.8125 -12.65625 C 32.507812 -14.601562 33.359375 -17.175781 33.359375 -20.375 C 33.359375 -23.507812 32.507812 -26.066406 30.8125 -28.046875 C 29.113281 -30.023438 26.925781 -31.015625 24.25 -31.015625 Z M 24.25 -31.015625 "/></g></g></g><g fill="#ffbd59" fill-opacity="1"><g transform="translate(164.683994, 193.774725)"><g><path d="M 23.640625 -41.578125 C 29.265625 -41.578125 33.632812 -40.269531 36.75 -37.65625 C 39.863281 -35.050781 41.445312 -31.414062 41.5 -26.75 L 41.5 0 L 28.65625 0 L 28.65625 -4.71875 C 25.96875 -1.164062 21.785156 0.609375 16.109375 0.609375 C 11.804688 0.609375 8.382812 -0.578125 5.84375 -2.953125 C 3.3125 -5.335938 2.046875 -8.429688 2.046875 -12.234375 C 2.046875 -16.140625 3.398438 -19.164062 6.109375 -21.3125 C 8.828125 -23.46875 12.71875 -24.570312 17.78125 -24.625 L 28.578125 -24.625 L 28.578125 -25.234375 C 28.578125 -27.253906 27.90625 -28.832031 26.5625 -29.96875 C 25.21875 -31.113281 23.226562 -31.6875 20.59375 -31.6875 C 16.894531 -31.6875 12.816406 -30.546875 8.359375 -28.265625 L 4.640625 -36.9375 C 11.273438 -40.03125 17.609375 -41.578125 23.640625 -41.578125 Z M 20.140625 -8.28125 C 22.210938 -8.28125 24.035156 -8.800781 25.609375 -9.84375 C 27.179688 -10.882812 28.171875 -12.238281 28.578125 -13.90625 L 28.578125 -17.5625 L 20.296875 -17.5625 C 16.335938 -17.5625 14.359375 -16.085938 14.359375 -13.140625 C 14.359375 -11.628906 14.863281 -10.441406 15.875 -9.578125 C 16.894531 -8.710938 18.316406 -8.28125 20.140625 -8.28125 Z M 20.140625 -8.28125 "/></g></g></g><g fill="#1f2122" fill-opacity="1"><g transform="translate(210.281651, 193.774725)"><g><path d="M 24.25 -41.421875 C 30.9375 -41.421875 36.332031 -39.503906 40.4375 -35.671875 C 44.539062 -31.847656 46.59375 -26.796875 46.59375 -20.515625 C 46.59375 -14.234375 44.539062 -9.164062 40.4375 -5.3125 C 36.332031 -1.46875 30.9375 0.453125 24.25 0.453125 C 17.507812 0.453125 12.085938 -1.46875 7.984375 -5.3125 C 3.878906 -9.164062 1.828125 -14.234375 1.828125 -20.515625 C 1.828125 -26.796875 3.878906 -31.847656 7.984375 -35.671875 C 12.085938 -39.503906 17.507812 -41.421875 24.25 -41.421875 Z M 24.25 -31.015625 C 21.507812 -31.015625 19.289062 -30.023438 17.59375 -28.046875 C 15.894531 -26.066406 15.046875 -23.507812 15.046875 -20.375 C 15.046875 -17.175781 15.894531 -14.601562 17.59375 -12.65625 C 19.289062 -10.707031 21.507812 -9.734375 24.25 -9.734375 C 26.925781 -9.734375 29.113281 -10.707031 30.8125 -12.65625 C 32.507812 -14.601562 33.359375 -17.175781 33.359375 -20.375 C 33.359375 -23.507812 32.507812 -26.066406 30.8125 -28.046875 C 29.113281 -30.023438 26.925781 -31.015625 24.25 -31.015625 Z M 24.25 -31.015625 "/></g></g></g><g fill="#1f2122" fill-opacity="1"><g transform="translate(258.691164, 193.774725)"><g><path d="M 59.96875 -41.578125 C 64.476562 -41.578125 68.0625 -40.144531 70.71875 -37.28125 C 73.375 -34.414062 74.703125 -30.601562 74.703125 -25.84375 L 74.703125 0 L 61.640625 0 L 61.640625 -22.1875 C 61.640625 -24.625 61.003906 -26.535156 59.734375 -27.921875 C 58.472656 -29.316406 56.75 -30.015625 54.5625 -30.015625 C 52.132812 -29.960938 50.195312 -29.035156 48.75 -27.234375 C 47.3125 -25.441406 46.59375 -23.128906 46.59375 -20.296875 L 46.59375 0 L 33.4375 0 L 33.4375 -22.1875 C 33.4375 -24.625 32.816406 -26.535156 31.578125 -27.921875 C 30.335938 -29.316406 28.628906 -30.015625 26.453125 -30.015625 C 23.960938 -29.960938 21.984375 -29.023438 20.515625 -27.203125 C 19.046875 -25.378906 18.3125 -23.078125 18.3125 -20.296875 L 18.3125 0 L 5.25 0 L 5.25 -40.96875 L 18.3125 -40.96875 L 18.3125 -34.203125 C 21.101562 -39.015625 25.613281 -41.472656 31.84375 -41.578125 C 35.132812 -41.578125 37.984375 -40.75 40.390625 -39.09375 C 42.796875 -37.445312 44.507812 -35.179688 45.53125 -32.296875 C 48.207031 -38.378906 53.019531 -41.472656 59.96875 -41.578125 Z M 59.96875 -41.578125 "/></g></g></g></svg>